<?xml version="1.0" encoding="UTF-8" standalone="no"?>
<svg
   width="16"
   height="3.5"
   fill="currentColor"
   class="bi bi-terminal-fill"
   viewBox="0 0 16 3.5"
   version="1.1"
   id="svg4"
   sodipodi:docname="fev.svg"
   inkscape:version="1.2 (dc2aeda, 2022-05-15)"
   xmlns:inkscape="http://www.inkscape.org/namespaces/inkscape"
   xmlns:sodipodi="http://sodipodi.sourceforge.net/DTD/sodipodi-0.dtd"
   xmlns="http://www.w3.org/2000/svg"
   xmlns:svg="http://www.w3.org/2000/svg">
  <defs
     id="defs8" />
  <sodipodi:namedview
     id="namedview6"
     pagecolor="#505050"
     bordercolor="#eeeeee"
     borderopacity="1"
     inkscape:showpageshadow="0"
     inkscape:pageopacity="0"
     inkscape:pagecheckerboard="0"
     inkscape:deskcolor="#505050"
     showgrid="false"
     inkscape:zoom="28.915063"
     inkscape:cx="11.499197"
     inkscape:cy="3.0779805"
     inkscape:window-width="1366"
     inkscape:window-height="656"
     inkscape:window-x="0"
     inkscape:window-y="25"
     inkscape:window-maximized="0"
     inkscape:current-layer="svg4" />
  <g
     aria-label="fevecal"
     id="text4692"
     style="font-weight:500;font-size:4.29235px;font-family:Roboto;-inkscape-font-specification:'Roboto Medium';letter-spacing:-0.201204px;display:inline;fill:#ffffff;stroke-width:0.022356">
    <path
       d="M 3.8437159,3.3719106 V 1.5485003 H 3.5062802 V 1.104175 H 3.8437159 V 0.91135457 q 0,-0.38144905 0.2179709,-0.59103644 0.2200668,-0.21168327 0.6140911,-0.21168327 0.1257524,0 0.3080935,0.0419175 l -0.00629,0.46947576 q -0.075451,-0.0188629 -0.1844369,-0.0188629 -0.3416274,0 -0.3416274,0.32066871 V 1.104175 H 4.9021323 V 1.5485003 H 4.4515194 v 1.8234103 z"
       style="font-weight:bold;-inkscape-font-specification:'Roboto Bold'"
       id="path759" />
    <path
       d="m 6.0087535,3.4138281 q -0.4988179,0 -0.813199,-0.3059976 Q 4.8832692,2.8018329 4.8832692,2.2925355 V 2.233851 q 0,-0.3416274 0.1320401,-0.6098993 0.1320401,-0.2703677 0.3730656,-0.414983 0.2431213,-0.1467112 0.5533107,-0.1467112 0.465284,0 0.73146,0.2934223 0.2682718,0.2934224 0.2682718,0.832062 V 2.4350549 H 5.4973603 q 0.029342,0.2221627 0.1760534,0.3562986 0.1488071,0.1341359 0.3751615,0.1341359 0.3500109,0 0.5470231,-0.2536007 l 0.297614,0.3332439 Q 6.7569805,3.197953 6.5243385,3.3069385 6.2916965,3.4138281 6.0087535,3.4138281 Z M 5.9395897,1.552692 q -0.1802451,0 -0.2934223,0.1215607 Q 5.535086,1.7958134 5.5036479,2.0221678 H 6.3461893 V 1.9739627 Q 6.3419975,1.7727588 6.2372038,1.6637733 6.1324101,1.552692 5.9395897,1.552692 Z"
       style="font-weight:bold;-inkscape-font-specification:'Roboto Bold'"
       id="path761" />
    <path
       d="M 7.9055195,2.6320671 8.3267901,1.104175 h 0.632954 L 8.1947501,3.3719106 H 7.6162889 L 6.8512949,1.104175 h 0.6329539 z"
       style="font-weight:bold;-inkscape-font-specification:'Roboto Bold'"
       id="path763" />
    <path
       d="m 10.041215,3.4138281 q -0.498818,0 -0.8131991,-0.3059976 Q 8.9157307,2.8018329 8.9157307,2.2925355 V 2.233851 q 0,-0.3416274 0.13204,-0.6098993 Q 9.1798108,1.353584 9.4208363,1.2089687 9.6639576,1.0622575 9.974147,1.0622575 q 0.465284,0 0.73146,0.2934223 0.268272,0.2934224 0.268272,0.832062 V 2.4350549 H 9.5298217 q 0.029342,0.2221627 0.1760534,0.3562986 0.1488071,0.1341359 0.3751619,0.1341359 0.350011,0 0.547023,-0.2536007 l 0.297614,0.3332439 Q 10.789442,3.197953 10.5568,3.3069385 10.324158,3.4138281 10.041215,3.4138281 Z M 9.9720511,1.552692 q -0.1802451,0 -0.2934223,0.1215607 Q 9.5675474,1.7958134 9.5361093,2.0221678 H 10.378651 V 1.9739627 Q 10.374459,1.7727588 10.269665,1.6637733 10.164872,1.552692 9.9720511,1.552692 Z"
       style="font-weight:bold;-inkscape-font-specification:'Roboto Bold'"
       id="path765" />
    <path
       d="m 12.059541,2.9254894 q 0.16767,0 0.272464,-0.092218 0.104794,-0.092218 0.108985,-0.2452173 h 0.567982 q -0.0021,0.2305462 -0.125752,0.4233666 -0.123657,0.1907245 -0.339532,0.2976141 -0.213779,0.1047937 -0.473667,0.1047937 -0.486243,0 -0.76709,-0.3080935 Q 11.022084,2.7955452 11.022084,2.250618 v -0.039822 q 0,-0.5239685 0.278751,-0.8362537 0.278751,-0.3122852 0.764994,-0.3122852 0.425462,0 0.681159,0.2431214 0.257793,0.2410255 0.261984,0.6434333 H 12.44099 Q 12.436799,1.7727588 12.332005,1.6637733 12.227211,1.552692 12.05535,1.552692 q -0.211684,0 -0.320669,0.1550947 -0.10689,0.1529988 -0.10689,0.498818 v 0.062876 q 0,0.3500109 0.10689,0.5030097 0.10689,0.1529988 0.32486,0.1529988 z"
       style="font-weight:bold;-inkscape-font-specification:'Roboto Bold'"
       id="path767" />
    <path
       d="m 14.467701,3.3719106 q -0.04192,-0.081739 -0.06078,-0.2032998 -0.220066,0.2452173 -0.572173,0.2452173 -0.333244,0 -0.553311,-0.1928205 -0.217971,-0.1928204 -0.217971,-0.4862427 0,-0.3604903 0.266176,-0.5533107 0.268272,-0.1928204 0.773378,-0.1949163 H 14.38177 V 1.8565937 q 0,-0.1571905 -0.08174,-0.2515049 -0.07964,-0.094314 -0.253601,-0.094314 -0.152999,0 -0.241026,0.073356 -0.08593,0.073356 -0.08593,0.2012039 h -0.605708 q 0,-0.1970121 0.121561,-0.3646821 0.12156,-0.1676699 0.343723,-0.2619842 0.222163,-0.09641 0.498818,-0.09641 0.419175,0 0.664392,0.2116833 0.247313,0.2095874 0.247313,0.5910364 v 0.9829649 q 0.0021,0.3227646 0.09012,0.4883386 v 0.03563 z M 13.966787,2.9506399 q 0.134136,0 0.247313,-0.058685 0.113177,-0.06078 0.16767,-0.1613823 V 2.3407406 h -0.226355 q -0.454804,0 -0.484146,0.3143811 l -0.0021,0.03563 q 0,0.1131772 0.07964,0.1865328 0.07964,0.073356 0.217971,0.073356 z"
       style="font-weight:bold;-inkscape-font-specification:'Roboto Bold'"
       id="path769" />
    <path
       d="M 15.892894,3.3719106 H 15.285091 V 0.15264821 h 0.607803 z"
       style="font-weight:bold;-inkscape-font-specification:'Roboto Bold'"
       id="path771" />
  </g>
  <path
     style="display:inline;fill:#ffffff;stroke-width:0.00318319"
     d="M 1.7557736,3.262586 C 1.6841046,3.248986 1.6286523,3.219616 1.5786127,3.168736 1.5320767,3.121416 1.5018797,3.063268 1.4907627,2.999569 1.4840327,2.960979 1.4861727,2.897665 1.4954027,2.862623 1.5256547,2.747757 1.6135884,2.65892 1.727041,2.62861 c 0.027313,-0.0073 0.037878,-0.0084 0.080763,-0.0086 0.054658,-1.95e-4 0.085115,0.0053 0.1277663,0.02326 0.053545,0.0225 0.113335,0.07249 0.1443659,0.120703 l 0.01504,0.02337 0.010007,-0.0096 c 0.00663,-0.0064 0.021798,-0.01385 0.045017,-0.02213 0.1480199,-0.05281 0.2730983,-0.129955 0.3795936,-0.234134 0.021448,-0.02098 0.038993,-0.03909 0.038993,-0.04025 0,-0.0012 -0.011623,-0.0046 -0.025826,-0.0076 -0.068716,-0.01477 -0.1561157,-0.0561 -0.2077235,-0.09823 l -0.00914,-0.0075 0.030426,-0.112839 c 0.064303,-0.238489 0.089334,-0.331755 0.1075936,-0.40091 0.010398,-0.03939 0.032427,-0.121757 0.048947,-0.183033 0.01652,-0.06128 0.036295,-0.135008 0.043943,-0.163848 l 0.013908,-0.05244 0.012459,-0.003 c 0.00685,-0.0016 0.0386,-0.0031 0.070549,-0.0033 0.049818,-2.42e-4 0.058089,-9.67e-4 0.058094,-0.0051 2.6e-6,-0.0027 -0.00351,-0.02487 -0.00781,-0.04934 C 2.6241399,0.93884495 2.2496155,0.58937495 1.7898564,0.54106595 c -0.057221,-0.006 -0.1660765,-0.0058 -0.2255662,5.23e-4 -0.1008139,0.01065 -0.2166574,0.04266 -0.3135436,0.08666 C 0.93710561,0.77067695 0.71356252,1.060843 0.65540592,1.401024 c -0.003445,0.0202 -0.006277,0.0391 -0.006277,0.04199 0,0.0047 0.006637,0.0053 0.0612758,0.0057 0.0336966,2.22e-4 0.0654446,0.0017 0.0705538,0.0033 0.008887,0.0028 0.009859,0.0051 0.0228325,0.0537 0.0437058,0.163815 0.0949989,0.355354 0.12227953,0.456627 0.0172139,0.0639 0.0358153,0.133375 0.0413346,0.154384 0.005516,0.02101 0.0229244,0.08592 0.0386768,0.144244 0.023369,0.08653 0.027913,0.106923 0.024686,0.110811 -0.00835,0.01007 -0.0666207,0.04618 -0.10156731,0.06295 -0.084027,0.04033 -0.17028342,0.0567 -0.26190591,0.0497 C 0.57208268,2.47713 0.49172423,2.44918 0.4102628,2.39492 0.3660212,2.36544 0.30368798,2.30217 0.27258142,2.25515 0.19275292,2.13449 0.16594086,1.990307 0.19771082,1.852525 0.22330922,1.741503 0.27469882,1.655632 0.36502422,1.572944 l 0.016712,-0.0153 v -0.02959 c 0,-0.01627 0.002177,-0.05162 0.00484,-0.07857 0.029594,-0.299172 0.15983677,-0.57594705 0.37143357,-0.78931705 0.16937571,-0.170795 0.38239281,-0.291492 0.61210061,-0.346821 0.1637688,-0.03945 0.3271182,-0.04793 0.4887855,-0.0254 0.2213916,0.03086 0.4173311,0.111449 0.6001245,0.246821 0.1645601,0.121865 0.3063955,0.294671 0.3946136,0.48077105 0.074727,0.157641 0.1179291,0.328522 0.1245618,0.492689 l 0.00205,0.05044 0.013016,0.01208 c 0.00715,0.0067 0.017646,0.01592 0.023308,0.02062 0.015419,0.0128 0.054613,0.06061 0.074626,0.09102 0.1159656,0.176206 0.1121667,0.411128 -0.00941,0.582191 -0.026169,0.03682 -0.072725,0.086 -0.1043149,0.110196 -0.021745,0.01665 -0.025723,0.02169 -0.052336,0.0662 -0.055143,0.09222 -0.1127752,0.165599 -0.1942011,0.247268 -0.1023219,0.102626 -0.2035773,0.176709 -0.3278676,0.23988 -0.084627,0.04301 -0.1440823,0.06654 -0.2337039,0.09249 l -0.04772,0.01381 -0.011412,0.02842 c -0.032671,0.08137 -0.1001484,0.149301 -0.1792725,0.180484 -0.054738,0.02157 -0.1232281,0.0291 -0.1751751,0.01924 z"
     id="path302" />
</svg>
